# xmcd
#
# Track frame offsets:
#	150
#	6825
#	18050
#	31820
#	43200
#	52967
#	63125
#	70250
#	78212
#	87412
#	95642
#	107947
#	115845
#	131035
#	138650
#	152930
#	161692
#	169700
#
# Disc length: 2418 seconds
#
# Revision: 1
# Processed by: cddbd v1.5.2PL0 Copyright (c) Steve Scherf et al.
# Submitted via: VUPlayer 2.49
#
DISCID=eb097012
DTITLE=Jim Reves - Live On Air
DYEAR=1900
DGENRE=Country
TTITLE0=Have I Told You Lately That I Love You?
TTITLE1=Just Call Me Lonesome
TTITLE2=How's the World Treating You
TTITLE3=If Heartaches Are the Fashion
TTITLE4=Home
TTITLE5=Dear Hearts and Gentle People
TTITLE6=I'm Beginning To Forget You
TTITLE7=Roly Poly
TTITLE8=The Wind Up
TTITLE9=Sweet Evening Breeze
TTITLE10=Your Old Love Letters
TTITLE11='Till the End of the World
TTITLE12=Making Believe
TTITLE13=Oklahoma Hills
TTITLE14=Highway To Nowhere
TTITLE15=If You Were Mine
TTITLE16=Everywhere You Go
TTITLE17=I Love You More
EXTD=MCPS QED44\n
EXTT0=
EXTT1=
EXTT2=
EXTT3=
EXTT4=
EXTT5=
EXTT6=
EXTT7=
EXTT8=
EXTT9=
EXTT10=
EXTT11=
EXTT12=
EXTT13=
EXTT14=
EXTT15=
EXTT16=
EXTT17=
PLAYORDER=
